<svg xmlns="http://www.w3.org/2000/svg" width="64" height="64" viewBox="0 0 64 64" fill="none">
  <defs>
    <linearGradient id="bg" x1="0" y1="0" x2="0" y2="1">
      <stop offset="0%" stop-color="#fff9f5"/>
      <stop offset="100%" stop-color="#f3edff"/>
    </linearGradient>
    <linearGradient id="head" x1="0" y1="0" x2="0" y2="1">
      <stop offset="0%" stop-color="#b8a4ff"/>
      <stop offset="100%" stop-color="#7c5cff"/>
    </linearGradient>
  </defs>
  <rect width="64" height="64" rx="16" fill="url(#bg)"/>
  <!-- head: half circle -->
  <path d="M14 46a18 18 0 0 1 36 0Z" fill="url(#head)"/>
  <!-- sheen -->
  <ellipse cx="32" cy="33" rx="13" ry="4.5" fill="#fff" opacity="0.22"/>
  <!-- ahoge: C-shaped tapering strand -->
  <path d="M33 33C39 31 42 27 40.5 22C39 17 34 15.5 29 17C33 18 36 21 35 25C34 30 31 31 30 33Z" fill="#7c5cff"/>
  <!-- sakura hairpin -->
  <g transform="translate(45 33) scale(0.32)">
    <g fill="#ff6b9d">
      <path d="M0 0C-6 -4 -6 -13 0 -19C6 -13 6 -4 0 0Z"/>
      <path transform="rotate(72)" d="M0 0C-6 -4 -6 -13 0 -19C6 -13 6 -4 0 0Z"/>
      <path transform="rotate(144)" d="M0 0C-6 -4 -6 -13 0 -19C6 -13 6 -4 0 0Z"/>
      <path transform="rotate(216)" d="M0 0C-6 -4 -6 -13 0 -19C6 -13 6 -4 0 0Z"/>
      <path transform="rotate(288)" d="M0 0C-6 -4 -6 -13 0 -19C6 -13 6 -4 0 0Z"/>
    </g>
    <circle r="3.2" fill="#ffd84d"/>
  </g>
</svg>
